<?xml version="1.0" encoding="utf-8"?>
<!-- Generator: Adobe Illustrator 22.1.0, SVG Export Plug-In . SVG Version: 6.00 Build 0)  -->
<svg version="1.1" id="Layer_1" xmlns="http://www.w3.org/2000/svg" xmlns:xlink="http://www.w3.org/1999/xlink" x="0px" y="0px"
	 viewBox="0 0 163 424" style="enable-background:new 0 0 163 424;" xml:space="preserve">
<style type="text/css">
	.st0{fill:url(#SVGID_1_);}
</style>
<radialGradient id="SVGID_1_" cx="84.5" cy="234.5802" r="212.6847" gradientUnits="userSpaceOnUse">
	<stop  offset="0.3537" style="stop-color:#1D2326"/>
	<stop  offset="1" style="stop-color:#611427"/>
</radialGradient>
<path class="st0" d="M10,392.5c-0.8,1-4.5,5.3-4,10c0.6,6.7,8.9,13.1,21,16c42,10,88.5,3.2,94.5,2.5c16-2,65.2-21.6,16-38
	c-12-4-14.5-3.5-31-6c0,0-11,0-14-12L91,345.7c0-0.1,0-0.2,0-0.3c0-5-1.8-116.2,5-132.8c2-14,21.8-23,31-31c8-7,44-25,34-99
	S150.5,5,150.5,5s-53-12-136,0c0,0-9,52-14,100c-4.8,45.8,36.4,76.5,40.2,79.3c0.2,0.1,2.5,1.9,4.3,3.2c4,3,6,4,10,7s6.1,3.9,9,9
	c4.9,8.5,5.2,19.3,5.5,22.5c2.4,26.8,6.5,75.5,5,133c-0.2,6.1-2,12-7,17c-5,2-12.7,3-22,4c-9,1-17.5,3.5-17.5,3.5l0,0
	C34.3,381.2,13.5,388,10,392.5z"/>
</svg>
